# Mountaineering Ice Axe 3D Mesh
mtllib ice_axe.mtl
v 0.000000 0.014000 0.050000
v -0.005358 0.012934 0.050000
v -0.009899 0.009899 0.050000
v -0.012934 0.005358 0.050000
v -0.014000 0.000000 0.050000
v -0.012934 -0.005358 0.050000
v -0.009899 -0.009899 0.050000
v -0.005358 -0.012934 0.050000
v -0.000000 -0.014000 0.050000
v 0.005358 -0.012934 0.050000
v 0.009899 -0.009899 0.050000
v 0.012934 -0.005358 0.050000
v 0.014000 -0.000000 0.050000
v 0.012934 0.005358 0.050000
v 0.009899 0.009899 0.050000
v 0.005358 0.012934 0.050000
v 0.000000 0.014000 0.580000
v -0.005358 0.012934 0.580000
v -0.009899 0.009899 0.580000
v -0.012934 0.005358 0.580000
v -0.014000 0.000000 0.580000
v -0.012934 -0.005358 0.580000
v -0.009899 -0.009899 0.580000
v -0.005358 -0.012934 0.580000
v -0.000000 -0.014000 0.580000
v 0.005358 -0.012934 0.580000
v 0.009899 -0.009899 0.580000
v 0.012934 -0.005358 0.580000
v 0.014000 -0.000000 0.580000
v 0.012934 0.005358 0.580000
v 0.009899 0.009899 0.580000
v 0.005358 0.012934 0.580000
v 0.000000 0.016000 0.050000
v -0.006123 0.014782 0.050000
v -0.011314 0.011314 0.050000
v -0.014782 0.006123 0.050000
v -0.016000 0.000000 0.050000
v -0.014782 -0.006123 0.050000
v -0.011314 -0.011314 0.050000
v -0.006123 -0.014782 0.050000
v -0.000000 -0.016000 0.050000
v 0.006123 -0.014782 0.050000
v 0.011314 -0.011314 0.050000
v 0.014782 -0.006123 0.050000
v 0.016000 -0.000000 0.050000
v 0.014782 0.006123 0.050000
v 0.011314 0.011314 0.050000
v 0.006123 0.014782 0.050000
v 0.000000 0.016000 0.250000
v -0.006123 0.014782 0.250000
v -0.011314 0.011314 0.250000
v -0.014782 0.006123 0.250000
v -0.016000 0.000000 0.250000
v -0.014782 -0.006123 0.250000
v -0.011314 -0.011314 0.250000
v -0.006123 -0.014782 0.250000
v -0.000000 -0.016000 0.250000
v 0.006123 -0.014782 0.250000
v 0.011314 -0.011314 0.250000
v 0.014782 -0.006123 0.250000
v 0.016000 -0.000000 0.250000
v 0.014782 0.006123 0.250000
v 0.011314 0.011314 0.250000
v 0.006123 0.014782 0.250000
v 0.000000 0.000000 0.000000
v 0.012000 0.000000 0.050000
v 0.010392 0.006000 0.050000
v 0.006000 0.010392 0.050000
v 0.000000 0.012000 0.050000
v -0.006000 0.010392 0.050000
v -0.010392 0.006000 0.050000
v -0.012000 0.000000 0.050000
v -0.010392 -0.006000 0.050000
v -0.006000 -0.010392 0.050000
v -0.000000 -0.012000 0.050000
v 0.006000 -0.010392 0.050000
v 0.010392 -0.006000 0.050000
v -0.016000 -0.017500 0.577500
v 0.016000 -0.017500 0.577500
v 0.016000 0.017500 0.577500
v -0.016000 0.017500 0.577500
v -0.016000 -0.017500 0.622500
v 0.016000 -0.017500 0.622500
v 0.016000 0.017500 0.622500
v -0.016000 0.017500 0.622500
v 0.016000 -0.005000 0.621000
v 0.016000 0.005000 0.621000
v 0.016000 0.005000 0.589000
v 0.016000 -0.005000 0.589000
v 0.060000 -0.004500 0.616000
v 0.060000 0.004500 0.616000
v 0.060000 0.004500 0.588000
v 0.060000 -0.004500 0.588000
v 0.110000 -0.004000 0.597000
v 0.110000 0.004000 0.597000
v 0.110000 0.004000 0.573000
v 0.110000 -0.004000 0.573000
v 0.150000 -0.003500 0.564000
v 0.150000 0.003500 0.564000
v 0.150000 0.003500 0.546000
v 0.150000 -0.003500 0.546000
v 0.180000 -0.003000 0.522000
v 0.180000 0.003000 0.522000
v 0.180000 0.003000 0.508000
v 0.180000 -0.003000 0.508000
v 0.205000 -0.001000 0.472000
v 0.205000 0.001000 0.472000
v 0.205000 0.001000 0.468000
v 0.205000 -0.001000 0.468000
v -0.016000 -0.012500 0.607500
v -0.016000 0.012500 0.607500
v -0.016000 0.012500 0.602500
v -0.016000 -0.012500 0.602500
v -0.045000 -0.016000 0.610500
v -0.045000 0.016000 0.610500
v -0.045000 0.016000 0.605500
v -0.045000 -0.016000 0.605500
v -0.075000 -0.021000 0.602500
v -0.075000 0.021000 0.602500
v -0.075000 0.021000 0.597500
v -0.075000 -0.021000 0.597500
v -0.095000 -0.025000 0.587500
v -0.095000 0.025000 0.587500
v -0.095000 0.025000 0.582500
v -0.095000 -0.025000 0.582500
vn 0.0000 1.0000 0.0000
vn -0.3827 0.9239 0.0000
vn -0.7071 0.7071 0.0000
vn -0.9239 0.3827 0.0000
vn -1.0000 0.0000 0.0000
vn -0.9239 -0.3827 0.0000
vn -0.7071 -0.7071 0.0000
vn -0.3827 -0.9239 0.0000
vn -0.0000 -1.0000 0.0000
vn 0.3827 -0.9239 -0.0000
vn 0.7071 -0.7071 -0.0000
vn 0.9239 -0.3827 -0.0000
vn 1.0000 -0.0000 -0.0000
vn 0.9239 0.3827 0.0000
vn 0.7071 0.7071 0.0000
vn 0.3827 0.9239 0.0000
vn 0.0000 1.0000 0.0000
vn -0.3827 0.9239 0.0000
vn -0.7071 0.7071 0.0000
vn -0.9239 0.3827 0.0000
vn -1.0000 0.0000 0.0000
vn -0.9239 -0.3827 0.0000
vn -0.7071 -0.7071 0.0000
vn -0.3827 -0.9239 0.0000
vn -0.0000 -1.0000 0.0000
vn 0.3827 -0.9239 -0.0000
vn 0.7071 -0.7071 -0.0000
vn 0.9239 -0.3827 -0.0000
vn 1.0000 -0.0000 -0.0000
vn 0.9239 0.3827 0.0000
vn 0.7071 0.7071 0.0000
vn 0.3827 0.9239 0.0000
vn 0.0000 1.0000 0.0000
vn -0.3827 0.9239 0.0000
vn -0.7071 0.7071 0.0000
vn -0.9239 0.3827 0.0000
vn -1.0000 0.0000 0.0000
vn -0.9239 -0.3827 0.0000
vn -0.7071 -0.7071 0.0000
vn -0.3827 -0.9239 0.0000
vn -0.0000 -1.0000 0.0000
vn 0.3827 -0.9239 -0.0000
vn 0.7071 -0.7071 -0.0000
vn 0.9239 -0.3827 -0.0000
vn 1.0000 -0.0000 -0.0000
vn 0.9239 0.3827 0.0000
vn 0.7071 0.7071 0.0000
vn 0.3827 0.9239 0.0000
vn 0.0000 1.0000 0.0000
vn -0.3827 0.9239 0.0000
vn -0.7071 0.7071 0.0000
vn -0.9239 0.3827 0.0000
vn -1.0000 0.0000 0.0000
vn -0.9239 -0.3827 0.0000
vn -0.7071 -0.7071 0.0000
vn -0.3827 -0.9239 0.0000
vn -0.0000 -1.0000 0.0000
vn 0.3827 -0.9239 -0.0000
vn 0.7071 -0.7071 -0.0000
vn 0.9239 -0.3827 -0.0000
vn 1.0000 -0.0000 -0.0000
vn 0.9239 0.3827 0.0000
vn 0.7071 0.7071 0.0000
vn 0.3827 0.9239 0.0000
vn 0.0000 0.0000 -1.0000
vn 1.0000 0.0000 0.0000
vn 0.8660 0.5000 0.0000
vn 0.5000 0.8660 0.0000
vn 0.0000 1.0000 0.0000
vn -0.5000 0.8660 0.0000
vn -0.8660 0.5000 0.0000
vn -1.0000 0.0000 0.0000
vn -0.8660 -0.5000 0.0000
vn -0.5000 -0.8660 0.0000
vn -0.0000 -1.0000 0.0000
vn 0.5000 -0.8660 0.0000
vn 0.8660 -0.5000 0.0000
vn 0.0000 1.0000 0.0000
vn 0.0000 1.0000 0.0000
vn 0.0000 1.0000 0.0000
vn 0.0000 1.0000 0.0000
vn 0.0000 1.0000 0.0000
vn 0.0000 1.0000 0.0000
vn 0.0000 1.0000 0.0000
vn 0.0000 1.0000 0.0000
vn 1.0000 0.0000 0.0000
vn 1.0000 0.0000 0.0000
vn 1.0000 0.0000 0.0000
vn 1.0000 0.0000 0.0000
vn 1.0000 0.0000 0.0000
vn 1.0000 0.0000 0.0000
vn 1.0000 0.0000 0.0000
vn 1.0000 0.0000 0.0000
vn 1.0000 0.0000 0.0000
vn 1.0000 0.0000 0.0000
vn 1.0000 0.0000 0.0000
vn 1.0000 0.0000 0.0000
vn 1.0000 0.0000 0.0000
vn 1.0000 0.0000 0.0000
vn 1.0000 0.0000 0.0000
vn 1.0000 0.0000 0.0000
vn 1.0000 0.0000 0.0000
vn 1.0000 0.0000 0.0000
vn 1.0000 0.0000 0.0000
vn 1.0000 0.0000 0.0000
vn 1.0000 0.0000 0.0000
vn 1.0000 0.0000 0.0000
vn 1.0000 0.0000 0.0000
vn 1.0000 0.0000 0.0000
vn -1.0000 0.0000 0.0000
vn -1.0000 0.0000 0.0000
vn -1.0000 0.0000 0.0000
vn -1.0000 0.0000 0.0000
vn -1.0000 0.0000 0.0000
vn -1.0000 0.0000 0.0000
vn -1.0000 0.0000 0.0000
vn -1.0000 0.0000 0.0000
vn -1.0000 0.0000 0.0000
vn -1.0000 0.0000 0.0000
vn -1.0000 0.0000 0.0000
vn -1.0000 0.0000 0.0000
vn -1.0000 0.0000 0.0000
vn -1.0000 0.0000 0.0000
vn -1.0000 0.0000 0.0000
vn -1.0000 0.0000 0.0000
usemtl OrangeShaft
f 1 2 18 17
f 2 3 19 18
f 3 4 20 19
f 4 5 21 20
f 5 6 22 21
f 6 7 23 22
f 7 8 24 23
f 8 9 25 24
f 9 10 26 25
f 10 11 27 26
f 11 12 28 27
f 12 13 29 28
f 13 14 30 29
f 14 15 31 30
f 15 16 32 31
f 16 1 17 32
usemtl RubberGrip
f 33 34 50 49
f 34 35 51 50
f 35 36 52 51
f 36 37 53 52
f 37 38 54 53
f 38 39 55 54
f 39 40 56 55
f 40 41 57 56
f 41 42 58 57
f 42 43 59 58
f 43 44 60 59
f 44 45 61 60
f 45 46 62 61
f 46 47 63 62
f 47 48 64 63
f 48 33 49 64
usemtl SteelSpike
f 65 66 67
f 65 67 68
f 65 68 69
f 65 69 70
f 65 70 71
f 65 71 72
f 65 72 73
f 65 73 74
f 65 74 75
f 65 75 76
f 65 76 77
f 65 77 66
usemtl SteelHead
f 78 79 80 81
f 82 85 84 83
f 78 82 83 79
f 80 84 85 81
f 78 81 85 82
f 79 83 84 80
f 86 90 91 87
f 87 91 92 88
f 88 92 93 89
f 89 93 90 86
f 90 94 95 91
f 91 95 96 92
f 92 96 97 93
f 93 97 94 90
f 94 98 99 95
f 95 99 100 96
f 96 100 101 97
f 97 101 98 94
f 98 102 103 99
f 99 103 104 100
f 100 104 105 101
f 101 105 102 98
f 102 106 107 103
f 103 107 108 104
f 104 108 109 105
f 105 109 106 102
f 106 107 108 109
f 110 114 115 111
f 111 115 116 112
f 112 116 117 113
f 113 117 114 110
f 114 118 119 115
f 115 119 120 116
f 116 120 121 117
f 117 121 118 114
f 118 122 123 119
f 119 123 124 120
f 120 124 125 121
f 121 125 122 118
f 122 123 124 125
